<svg width="320" height="223" viewBox="0 0 320 223" fill="none" xmlns="http://www.w3.org/2000/svg">
<path d="M319.632 8.77512C320.06 8.42588 320.124 7.79594 319.775 7.3681L314.083 0.396052C313.734 -0.0317729 313.104 -0.0955004 312.676 0.253744C312.249 0.602988 312.185 1.23295 312.534 1.66079L317.593 7.85816L311.396 12.9171C310.968 13.2663 310.904 13.8963 311.253 14.3241C311.603 14.7519 312.233 14.8157 312.66 14.4664L319.632 8.77512ZM0.910297 218.996C51.5722 223.562 88.4243 223.085 114.881 218.803C141.327 214.523 157.522 206.42 166.692 195.608C175.886 184.769 177.868 171.391 176.308 156.941C174.75 142.514 169.645 126.867 164.512 111.373C159.361 95.8281 154.184 80.4399 152.358 66.3627C150.534 52.3032 152.08 39.7304 160.192 29.6993C168.321 19.6465 183.209 11.9424 208.548 8.02468C233.875 4.10891 269.498 3.99895 318.899 8.99539L319.101 7.00553C269.627 2.00183 233.812 2.0949 208.243 6.04817C182.686 9.99951 167.218 17.8305 158.636 28.4417C150.038 39.0746 148.516 52.2947 150.374 66.62C152.23 80.9275 157.482 96.5159 162.613 112.002C167.761 127.54 172.789 142.979 174.319 157.155C175.847 171.308 173.872 184.051 165.167 194.314C156.439 204.604 140.794 212.583 114.562 216.829C88.3415 221.072 51.6779 221.564 1.08982 217.004L0.910297 218.996Z" fill="white"/>
</svg>
